<?xml version="1.0" encoding="utf-8"?>
<!-- Generator: Adobe Illustrator 22.1.0, SVG Export Plug-In . SVG Version: 6.00 Build 0)  -->
<svg version="1.1" id="Layer_1" xmlns="http://www.w3.org/2000/svg" xmlns:xlink="http://www.w3.org/1999/xlink" x="0px" y="0px"
	 viewBox="0 0 40 40" style="enable-background:new 0 0 40 40;" xml:space="preserve">
<style type="text/css">
	.st0{fill:#FF6F00;}
</style>
<title>icon_meal_new</title>
<g id="home---gcc">
	<g id="home">
		<g id="Group-11">
			<g id="Group-9">
				<g id="icon_meal">
					<path class="st0" d="M38.6,6.7H30v-3l4.3-2.5c0.3-0.2,0.5-0.6,0.3-0.9c-0.2-0.3-0.7-0.4-1-0.2L29,2.7c-0.1,0-0.1,0-0.1,0.1v0
						c-0.2,0.1-0.2,0.3-0.2,0.5v3.3H20c-0.7,0-1.3,0.6-1.3,1.3v2.7c0,0.5,0.3,0.9,0.7,1.2l0.1,2.6C17.7,14.2,15.8,14,14,14
						c-8.4,0-14,2.9-14,7.3V22c0,0.7,0.6,1.3,1.3,1.3H2v1.5c-1,0.2-1.7,1-1.9,2c-0.1,0.7,0.1,1.5,0.5,2.1c0.3,0.5,0.8,0.8,1.4,0.9
						v0.7c-1.1,0-2,1-2,2.1v1.3c0,1.1,0.9,2,2,2.1v2c0,1.1,0.9,2,2,2h32c1.1,0,1.9-0.8,2-1.9l1.2-26.2c0.4-0.2,0.7-0.7,0.7-1.2V8
						c0.1-0.7-0.4-1.2-1.1-1.3C38.7,6.7,38.7,6.7,38.6,6.7z M20,8h18.7v2.7H20V8z M3.3,30.6v-0.7c0.4-0.1,0.8-0.3,1.2-0.6
						c0.4-0.4,0.7-0.8,0.8-1.3h2.1c0.4,1.4,1.9,2.3,3.3,1.9c0.9-0.2,1.7-1,1.9-1.9h2.9c0.4,1.4,1.9,2.3,3.3,1.9
						c0.9-0.2,1.7-1,1.9-1.9h2.1c0.1,0.5,0.3,1,0.7,1.3c0.3,0.3,0.7,0.5,1.2,0.6v0.7H3.3z M27,25.2c-0.3-0.2-0.6-0.4-1-0.5v-1.4h0.7
						c0.7,0,1.3-0.6,1.3-1.3v-1l0,0c0-0.9-0.3-1.7-0.8-2.4l-0.1-0.1c0.7-0.3,1.4-0.5,2.2-0.5c2.6,0,4.7,2.1,4.7,4.7
						c0,2.6-2.1,4.7-4.7,4.7c-0.4,0-0.9-0.1-1.3-0.2C27.9,26.4,27.5,25.7,27,25.2z M1.3,21.3c0-3.5,5.2-6,12.7-6
						c6,0,10.6,1.6,12.1,4.1c0.4,0.6,0.5,1.2,0.5,1.9V22H1.3V21.3z M24.6,23.3v1.3H3.3v-1.3H24.6z M1.7,28c-0.4-0.5-0.4-1.3,0.1-1.7
						c0.3-0.2,0.6-0.4,1-0.3h22.5c0.7,0,1.3,0.6,1.3,1.3c-0.1,0.7-0.7,1.3-1.4,1.3c-0.1,0-0.2,0-0.2,0.1c-0.2,0-0.5-0.1-0.6-0.3
						c-0.3-0.2-0.4-0.6-0.4-1c0-0.4-0.3-0.7-0.7-0.7c0,0,0,0,0,0H20c-0.4,0-0.7,0.3-0.7,0.7c0,0,0,0,0,0c0,0.7-0.6,1.3-1.3,1.3
						c-0.7,0-1.3-0.6-1.3-1.3c0-0.4-0.3-0.7-0.7-0.7c0,0,0,0,0,0h-4c-0.4,0-0.7,0.3-0.7,0.7c0,0,0,0,0,0c0,0.7-0.6,1.3-1.3,1.3
						c-0.7,0-1.3-0.6-1.3-1.3c0-0.4-0.3-0.7-0.7-0.7c0,0,0,0,0,0H4.7c-0.4,0-0.7,0.3-0.7,0.7c0,0,0,0,0,0c0,0.4-0.1,0.8-0.4,0.9
						c-0.2,0.3-0.5,0.3-0.9,0.3C2.3,28.6,1.9,28.4,1.7,28z M1.3,34v-1.3c0-0.9,0.7-0.8,0.7-0.8h24c0.4,0,0.7,0.3,0.7,0.7
						c0,0,0,0,0,0v1.3c0,0.4-0.3,0.7-0.7,0.7c0,0,0,0,0,0H2.1C1.7,34.6,1.3,34.3,1.3,34z M3.3,38v-2h21.3v2c0,0.4-0.3,0.7-0.7,0.7
						c0,0,0,0,0,0H4C3.6,38.6,3.3,38.4,3.3,38z M36.7,38c0,0.4-0.3,0.7-0.7,0.7c0,0,0,0,0,0H25.9c0.1-0.1,0.1-0.3,0.1-0.5V36
						c0.9-0.1,1.6-0.6,1.9-1.4c0.1-0.2,0.2-0.5,0.2-0.8v-1.3c0-1.2-1-2.1-2.1-2.1c0,0,0,0,0,0v-0.6c0.8-0.2,1.4-0.8,1.8-1.5
						c0.5,0.1,1.1,0.2,1.6,0.2c3.3,0,6.1-2.8,6.1-6.1c0-3.3-2.7-6-6-6c-1.1,0-2.2,0.3-3.1,0.9C24.9,16,23,15,21,14.6L20.7,12H38
						L36.7,38z"/>
				</g>
			</g>
		</g>
	</g>
</g>
</svg>
