<?xml version="1.0" encoding="utf-8"?>
<!-- Generator: Adobe Illustrator 21.0.2, SVG Export Plug-In . SVG Version: 6.00 Build 0)  -->
<svg version="1.1" id="Layer_1" xmlns="http://www.w3.org/2000/svg" xmlns:xlink="http://www.w3.org/1999/xlink" x="0px" y="0px"
	 viewBox="0 0 270 23" style="enable-background:new 0 0 270 23;" xml:space="preserve">
<style type="text/css">
	.st0{clip-path:url(#SVGID_2_);fill:#B7B7B7;}
	.st1{fill:#B7B7B7;}
</style>
<g>
	<g>
		<g>
			<defs>
				<path id="SVGID_1_" d="M196.9,17.9L196.9,17.9l-0.1-0.1h0.1c0,0,0,0,0.1,0C197,17.7,197,17.8,196.9,17.9
					C197,17.8,197,17.8,196.9,17.9C197,17.8,197,17.8,196.9,17.9C197,17.9,196.9,17.9,196.9,17.9L196.9,17.9z M197,17.9L197,17.9
					L197,17.9c0.1-0.1,0.1-0.1,0.1-0.1s0,0,0-0.1l0,0H197h-0.1v0.4h0.1V17.9L197,17.9C196.9,17.9,196.9,17.9,197,17.9
					C196.9,18,197,18,197,17.9v0.2h0.1L197,17.9C197,18,197,18,197,17.9L197,17.9z M197.2,18l-0.1,0.1c-0.1,0.1-0.2,0.1-0.3,0
					l-0.1-0.1c0,0,0-0.1,0-0.2s0-0.1,0-0.2l0.1-0.1c0,0,0.1,0,0.2,0c0.1,0,0.1,0,0.2,0l0.1,0.1c0,0,0,0.1,0,0.2
					C197.2,17.9,197.2,18,197.2,18z M197.1,17.6c-0.1,0-0.1,0-0.2,0c-0.1,0-0.1,0-0.2,0c-0.1,0-0.1,0.1-0.1,0.1c0,0.1,0,0.1,0,0.2
					s0,0.1,0,0.2s0.1,0.1,0.1,0.1c0.1,0,0.1,0.1,0.2,0.1c0.1,0,0.1,0,0.2-0.1c0.1,0,0.1-0.1,0.1-0.1c0-0.1,0.1-0.1,0-0.2
					c0-0.1,0-0.1,0-0.2C197.2,17.6,197.2,17.6,197.1,17.6L197.1,17.6z M196.8,14L196.8,14C196.8,13.9,196.8,13.9,196.8,14
					c-0.1-0.1-0.1-0.1-0.1-0.1h-0.1V14H196.8C196.8,14.1,196.8,14.1,196.8,14L196.8,14L196.8,14z M177.6,10.7
					c-0.4,0-0.8,0.4-0.8,0.8h1.4C178.2,11.4,178.3,10.7,177.6,10.7z M196.9,14.3L196.9,14.3c-0.1-0.1-0.1-0.1-0.1-0.2c0,0,0,0-0.1,0
					l0,0v0.2h-0.1v-0.4h0.1h0.1l0,0c0,0,0,0,0,0.1v0.1c0,0,0,0-0.1,0l0,0C196.8,14.2,196.9,14.2,196.9,14.3L196.9,14.3L196.9,14.3
					L196.9,14.3z M196.9,13.8c0,0-0.1,0-0.2,0c-0.1,0-0.1,0-0.2,0l-0.1,0.1c0,0,0,0.1,0,0.2c0,0.1,0,0.1,0,0.2l0.1,0.1
					c0.1,0.1,0.2,0.1,0.3,0l0.1-0.1c0,0,0-0.1,0-0.2c0-0.1,0-0.1,0-0.2C197,13.9,197,13.8,196.9,13.8L196.9,13.8z M194.3,10.8
					c-0.5,0-1,0.6-1,1.6c0,0.6,0.2,1,0.7,1c0.7,0,1-0.9,1-1.5C195,11.1,194.8,10.8,194.3,10.8L194.3,10.8z M167.3,13
					c0,0.1,0,0.3,0.1,0.3c0.1,0.1,0.2,0.1,0.3,0.1c0.7,0,0.9-1,0.9-1.2c-0.1,0-0.2,0-0.3,0C167.5,12.3,167.3,12.7,167.3,13L167.3,13
					z M187.1,13c0,0.1,0,0.3,0.1,0.3c0.1,0.1,0.2,0.1,0.3,0.1c0.7,0,0.9-1,0.9-1.2c-0.1,0-0.2,0-0.3,0
					C187.3,12.3,187.1,12.7,187.1,13z M197.1,14.3c0,0.1-0.1,0.1-0.1,0.1c-0.1,0-0.1,0.1-0.2,0.1c-0.1,0-0.1,0-0.2-0.1
					c-0.1,0-0.1-0.1-0.1-0.1c0-0.1,0-0.1,0-0.2c0-0.1,0-0.1,0-0.2c0-0.1,0.1-0.1,0.1-0.1c0.1,0,0.1,0,0.2,0c0.1,0,0.1,0,0.2,0
					c0.1,0,0.1,0.1,0.1,0.1c0,0.1,0,0.1,0,0.2C197.1,14.1,197.1,14.2,197.1,14.3L197.1,14.3z M194.7,14.4l0.1-0.4
					c-0.3,0.3-0.7,0.5-1.1,0.5c-1,0-1.5-1-1.5-2c0-1.5,0.9-2.9,2.1-2.9c0.5,0,0.9,0.3,1.2,0.6l0.3-1.6h1.2l-0.9,5.8L194.7,14.4
					L194.7,14.4z M190.9,14.4h-1.3l0.8-4.7h1.1l-0.1,0.7c0,0,0.4-0.8,1-0.8c0.1,0,0.2,0,0.2,0c-0.2,0.4-0.4,0.9-0.5,1.4
					C191.3,10.8,191.3,12.4,190.9,14.4z M188.4,14.4v-0.5c-0.3,0.4-0.8,0.6-1.3,0.6c-0.3,0-0.7-0.1-0.9-0.4
					c-0.2-0.3-0.3-0.6-0.3-0.9c0-1.4,1.1-1.8,2.2-1.8c0.2,0,0.5,0,0.5,0c0-0.1,0-0.2,0-0.3c0-0.4-0.3-0.4-0.8-0.4s-0.9,0.1-1.3,0.2
					l0.2-1.1c0.5-0.2,1-0.3,1.5-0.3c0.4,0,1.7,0,1.7,1.5l-0.5,3.4H188.4L188.4,14.4z M185.4,14.4c-0.4,0.1-0.7,0.1-1.1,0.2
					c-1.5,0-2.2-1-2.2-2.5c0-2.3,1.4-3.5,2.8-3.5c0.5,0,0.9,0.1,1.4,0.3l-0.2,1.3c-0.3-0.2-0.7-0.3-1.1-0.3c-0.8,0-1.6,0.8-1.6,2.2
					c0,0.7,0.3,1.4,1.2,1.4c0.4,0,0.7-0.1,1-0.3L185.4,14.4z M180.6,14.4h-1.3l0.8-4.7h1.1l-0.1,0.7c0,0,0.4-0.8,1-0.8
					c0.1,0,0.2,0,0.2,0c-0.2,0.4-0.4,0.9-0.5,1.4C181,10.8,181,12.4,180.6,14.4z M177.8,13.4c0.4,0,0.9-0.1,1.3-0.3l-0.2,1.2
					c-0.4,0.2-0.9,0.2-1.3,0.2c-1,0-2.1-0.4-2.1-2.1c0-1.5,0.9-2.8,2.1-2.8c0.5,0,1,0.2,1.3,0.5s0.5,0.8,0.5,1.3
					c0,0.4-0.1,0.7-0.2,1.1h-2.5C176.7,12.5,176.5,13.4,177.8,13.4L177.8,13.4z M175.1,14.4c-0.3,0.1-0.6,0.2-0.9,0.2
					c-0.3,0-0.6-0.1-0.7-0.3c-0.2-0.2-0.3-0.5-0.2-0.7c0-0.5,0.7-4.5,0.7-4.5h1.2L175,9.7h0.6l-0.2,1.1h-0.7l-0.3,2.1
					c0,0.2,0,0.4,0.4,0.4c0.1,0,0.2,0,0.3,0V14.4z M173,12.9c0,1.6-1.6,1.6-1.9,1.6c-0.5,0-0.9,0-1.4-0.2l0.2-1.1
					c0.4,0.1,0.7,0.2,1.1,0.2c0.3,0,0.8,0,0.8-0.4c0-0.6-1.5-0.5-1.5-1.8c0-1.2,0.9-1.6,1.8-1.6c0.4,0,0.8,0,1.1,0.1l-0.2,1.1
					c0,0-0.7-0.1-0.8-0.1c-0.4,0-0.7,0.1-0.7,0.4C171.6,11.7,173,11.4,173,12.9z M168.5,14.4v-0.5c-0.3,0.4-0.8,0.6-1.3,0.6
					c-0.3,0-0.7-0.1-0.9-0.4c-0.2-0.3-0.3-0.6-0.3-0.9c0-1.4,1.1-1.8,2.2-1.8c0.2,0,0.5,0,0.5,0c0-0.1,0-0.2,0-0.3
					c0-0.4-0.3-0.4-0.8-0.4s-0.9,0.1-1.3,0.2l0.2-1.1c0.5-0.2,1-0.3,1.5-0.3c0.4,0,1.7,0,1.7,1.5l-0.5,3.4H168.5z M164.3,14.4
					L165,10l-1.6,4.4h-0.8l-0.1-4.4l-0.7,4.4h-1.2l1-5.8h1.8l0.1,3.6l1.2-3.6h1.9l-1,5.8C165.6,14.4,164.3,14.4,164.3,14.4z
					 M186.6,0c-2.9,0-5.6,1.1-7.7,3c-2.1-1.9-4.9-3-7.7-3H171c-6.4,0.1-11.5,5.2-11.4,11.5c0,6.3,5.1,11.4,11.5,11.5
					c2.9,0,5.6-1.1,7.7-3c2.1,1.9,4.9,3,7.7,3c6.4,0,11.6-5.2,11.5-11.5l0,0C198.1,5.2,193,0,186.6,0z"/>
			</defs>
			<clipPath id="SVGID_2_">
				<use xlink:href="#SVGID_1_"  style="overflow:visible;"/>
			</clipPath>
			<rect x="153.9" y="-5.7" class="st0" width="50" height="34.5"/>
		</g>
	</g>
</g>
<path class="st1" d="M235.6,5.7V23H270V5.7H235.6z M242.8,20.2h-4.3v-4.3h2.1V18h2.2L242.8,20.2L242.8,20.2z M242.8,10.8h-2.2V13
	h-2.1V8.7h4.3L242.8,10.8L242.8,10.8z M255.8,17.5c-0.9,0.8-1.9,1.2-3,1.2c-1.2,0-2.2-0.4-3-1.2c-0.8-0.8-1.3-1.9-1.3-3.1
	s0.4-2.2,1.3-3s1.9-1.3,3-1.3c1.2,0,2.2,0.4,3,1.3c0.8,0.9,1.3,1.9,1.3,3C257.1,15.7,256.7,16.7,255.8,17.5z M267.1,20.2h-4.3V18
	h2.1v-2.2h2.2L267.1,20.2L267.1,20.2z M267.1,13H265v-2.1h-2.1V8.7h4.3L267.1,13L267.1,13z M238.5,0v2.9h28.6V0H238.5z"/>
<g>
	<path class="st1" d="M7.1,16c-0.3-0.2-0.7-0.3-1.2-0.4c-0.4-0.1-0.9-0.2-1.4-0.2c-0.6,0-1.2,0.1-1.8,0.3s-1,0.6-1.5,1
		c-0.4,0.4-0.7,0.9-1,1.5c-0.1,0.6-0.2,1.3-0.2,2c0,0.9,0.3,1.6,0.8,2.1C1.3,22.7,2.1,23,3.1,23c0.4,0,0.7,0,0.8-0.1
		c0.2,0,0.4-0.1,0.7-0.2c0.2-0.1,0.4-0.1,0.6-0.2s0.4-0.2,0.5-0.2l0.4-1.7H5.9c-0.4,0.3-0.7,0.5-1.1,0.7S4,21.6,3.5,21.6
		s-0.9-0.1-1.1-0.4C2.1,20.9,2,20.5,2,19.9c0-0.9,0.2-1.7,0.7-2.2c0.5-0.6,1.1-0.9,1.8-0.9c0.4,0,0.8,0.1,1.1,0.2
		c0.3,0.2,0.6,0.4,0.9,0.7h0.2L7.1,16z"/>
	<path class="st1" d="M12.7,17.6c-0.3-0.2-0.7-0.4-1.2-0.4c-0.4,0-0.7,0.1-1,0.2s-0.6,0.3-1,0.6l0.6-2.7H8.4l-1.8,7.6h1.8L9.3,19
		c0.2-0.1,0.4-0.2,0.6-0.3c0.2-0.1,0.3-0.1,0.5-0.1c0.3,0,0.5,0.1,0.6,0.1c0.1,0.1,0.2,0.3,0.2,0.5c0,0.1,0,0.2,0,0.4
		c0,0.1-0.1,0.3-0.1,0.5l-0.6,2.7h1.8l0.8-3.6c0-0.1,0.1-0.3,0.1-0.4s0-0.2,0-0.3C13.1,18.1,12.9,17.8,12.7,17.6z"/>
	<path class="st1" d="M19.1,17.7c-0.4-0.3-1-0.5-1.9-0.5c-0.5,0-1,0.1-1.5,0.3c-0.5,0.2-0.8,0.4-1.1,0.7c-0.3,0.3-0.6,0.7-0.7,1.1
		c-0.2,0.4-0.3,0.9-0.3,1.4c0,0.7,0.3,1.3,0.8,1.7c0.5,0.4,1.2,0.6,2.2,0.6c0.4,0,0.8,0,1.2-0.1c0.4-0.1,0.7-0.2,1.1-0.3l0.3-1.4H19
		c-0.3,0.2-0.6,0.3-0.9,0.4s-0.7,0.2-1.1,0.2c-0.6,0-1-0.1-1.2-0.3c-0.3-0.2-0.4-0.5-0.4-0.9c0,0,0,0,0-0.1c0,0,0,0,0-0.1h4.1
		c0.1-0.2,0.1-0.4,0.2-0.6s0.1-0.4,0.1-0.7C19.8,18.5,19.6,18,19.1,17.7z M18,19.2c0,0.1,0,0.1,0,0.2l0,0h-2.4
		c0.1-0.4,0.3-0.6,0.6-0.8c0.2-0.2,0.6-0.3,0.9-0.3s0.5,0.1,0.7,0.2S18,18.8,18,19.2C18,19.1,18,19.2,18,19.2z"/>
	<path class="st1" d="M23.8,18.4c0.3,0,0.6,0.1,0.8,0.2s0.5,0.3,0.7,0.5h0.3l0.4-1.5c-0.3-0.1-0.6-0.3-0.9-0.3
		c-0.3-0.1-0.7-0.1-1-0.1c-0.6,0-1.1,0.1-1.6,0.3c-0.5,0.2-0.9,0.4-1.2,0.7c-0.3,0.3-0.6,0.7-0.8,1.1c-0.2,0.4-0.3,0.9-0.3,1.4
		c0,0.4,0.1,0.7,0.2,1s0.3,0.5,0.6,0.7c0.2,0.2,0.5,0.3,0.9,0.4c0.3,0.1,0.7,0.1,1.1,0.1s0.8,0,1-0.1c0.3-0.1,0.6-0.2,0.9-0.3
		l0.4-1.5H25c-0.2,0.2-0.4,0.3-0.7,0.5c-0.3,0.1-0.6,0.2-0.9,0.2c-0.4,0-0.8-0.1-1-0.3c-0.2-0.2-0.3-0.5-0.3-0.9
		c0-0.6,0.2-1.1,0.5-1.5C22.8,18.6,23.2,18.4,23.8,18.4z"/>
	<polygon class="st1" points="32.4,17.3 30.4,17.3 27.9,19.4 28.7,15.2 27,15.2 25.5,22.8 27.2,22.8 27.6,21.1 27.8,20.5 29.5,22.8 
		31.4,22.8 29.3,19.9 	"/>
	<path class="st1" d="M35.3,17.2c-0.6,0-1.1,0.1-1.5,0.3c-0.4,0.2-0.8,0.5-1.1,0.8S32.1,19,32,19.5c-0.2,0.4-0.2,0.9-0.2,1.4
		c0,0.7,0.2,1.2,0.7,1.6c0.4,0.4,1.1,0.6,1.9,0.6c0.6,0,1.1-0.1,1.5-0.3c0.4-0.2,0.8-0.4,1.1-0.8c0.3-0.3,0.6-0.7,0.7-1.2
		c0.2-0.4,0.3-0.9,0.3-1.4c0-0.7-0.2-1.2-0.7-1.6C36.7,17.3,36.1,17.2,35.3,17.2z M35.8,20.4c-0.1,0.3-0.2,0.5-0.3,0.8
		c-0.1,0.2-0.3,0.4-0.5,0.5s-0.4,0.2-0.6,0.2c-0.3,0-0.5-0.1-0.7-0.2c-0.2-0.2-0.3-0.4-0.3-0.8c0-0.3,0-0.6,0.1-0.9s0.2-0.6,0.3-0.8
		c0.1-0.2,0.3-0.4,0.5-0.5s0.4-0.2,0.7-0.2s0.6,0.1,0.7,0.3c0.2,0.2,0.2,0.4,0.2,0.8C35.9,19.8,35.9,20.1,35.8,20.4z"/>
	<path class="st1" d="M44.7,17.3L44.7,17.3L44.7,17.3z"/>
	<path class="st1" d="M42.9,17.3L42,21.2c-0.2,0.1-0.4,0.2-0.6,0.3c-0.2,0.1-0.4,0.1-0.5,0.1c-0.3,0-0.5-0.1-0.6-0.1
		c-0.1-0.1-0.2-0.3-0.2-0.5c0-0.1,0-0.2,0-0.4c0-0.2,0.1-0.3,0.1-0.5l0.6-2.7H39L38.2,21c0,0.1-0.1,0.2-0.1,0.3c0,0.1,0,0.2,0,0.3
		c0,0.5,0.1,0.8,0.4,1c0.3,0.2,0.7,0.3,1.1,0.3c0.2,0,0.3,0,0.5,0s0.3-0.1,0.5-0.2s0.3-0.1,0.5-0.2s0.3-0.2,0.5-0.3l-0.1,0.6h1.8
		l1.3-5.5C44.6,17.3,42.9,17.3,42.9,17.3z"/>
	<path class="st1" d="M46.5,20.5l0.5-2h1.7l0.3-1.2h-1.7l0.4-1.6h-1.8l-0.4,1.6l-0.3,1.2l-0.6,2.6c0,0.1,0,0.2-0.1,0.3
		c0,0.1,0,0.2,0,0.3c0,0.4,0.1,0.7,0.4,0.9c0.3,0.2,0.7,0.3,1.3,0.3c0.3,0,0.6,0,0.8-0.1c0.2,0,0.4-0.1,0.6-0.1l0.3-1.2h-0.1
		c-0.1,0-0.2,0.1-0.4,0.1c-0.1,0-0.3,0.1-0.4,0.1c-0.2,0-0.4,0-0.5-0.1s-0.2-0.2-0.2-0.4c0-0.1,0-0.2,0-0.4
		C46.5,20.7,46.5,20.6,46.5,20.5z"/>
	<path class="st1" d="M34.6,13.4l0.7-2h4.4l0.4,2h3.2L40.5,0.2h-2.9c-0.7,0-1.2,0.4-1.5,1L31,13.4H34.6z M38.1,3.8l1,5h-2.8
		L38.1,3.8z"/>
	<path class="st1" d="M25.6,10.9c-1.7,0-2.7-0.5-3.5-0.8L21.5,13c0.8,0.4,2.3,0.7,3.8,0.7c3.6,0,5.9-1.8,5.9-4.5
		c0-3.5-4.8-3.7-4.8-5.2c0-0.5,0.5-1,1.4-1.1c0.5-0.1,1.8-0.1,3.4,0.6l0.6-2.8C31,0.3,30,0,28.7,0c-3.4,0-5.7,1.8-5.8,4.4
		c0,1.9,1.7,3,3,3.6s1.8,1.1,1.8,1.6C27.6,10.5,26.6,10.9,25.6,10.9z"/>
	<polygon class="st1" points="19.1,13.4 22,0.2 18.6,0.2 15.7,13.4 	"/>
	<path class="st1" d="M5.2,2.9L8,13.4h3.6l5.5-13.2h-3.6l-3.5,9L8.5,1.6C8.3,0.7,7.7,0.2,6.9,0.2H1.1v0.4c1.2,0.3,2.5,0.7,3.4,1.1
		C4.9,2,5.1,2.3,5.2,2.9z"/>
</g>
<g>
	<rect x="87.7" y="1.2" class="st1" width="33.3" height="2.9"/>
	<rect x="87.7" y="18.8" class="st1" width="33.3" height="2.9"/>
	<path class="st1" d="M122.1,0.4V0l0,0h-0.4H86.5v0.4l0,0v22.2l0,0V23h35.6v-0.4l0,0V0.4L122.1,0.4z M121.8,22.5H86.9V0.4h34.9V22.5
		z"/>
	<path class="st1" d="M100.9,7.4l-3.4,8.2h-2.2l-1.7-6.5c-0.1-0.4-0.2-0.6-0.5-0.8C92.6,8,91.8,7.8,91,7.6l0.1-0.2h3.6
		c0.5,0,0.9,0.3,1,0.9l0.9,4.7l2.2-5.6C98.8,7.4,100.9,7.4,100.9,7.4z M109.8,12.9c0-2.1-3-2.2-2.9-3.2c0-0.3,0.3-0.6,0.9-0.7
		c0.3,0,1.2-0.1,2,0.4l0.4-1.8c-0.5-0.2-1.2-0.4-1.9-0.4c-2.1,0-3.6,1.1-3.6,2.7c0,1.2,1.1,1.9,1.9,2.2c0.8,0.4,1.1,0.7,1.1,1
		c0,0.6-0.7,0.8-1.3,0.8c-1.1,0-1.7-0.3-2.1-0.5l-0.4,1.8c0.5,0.2,1.4,0.4,2.3,0.4C108.3,15.7,109.8,14.6,109.8,12.9 M115.4,15.5
		h1.9l-1.8-8.2h-1.9c-0.4,0-0.8,0.2-0.9,0.6l-3.2,7.6h2.2l0.5-1.3h2.7L115.4,15.5z M112.9,12.7l1.1-3l0.7,3H112.9z M104.1,7.4
		l-1.8,8.2h-2.1l1.8-8.2C101.9,7.4,104.1,7.4,104.1,7.4z"/>
</g>
</svg>
