<?xml version="1.0" encoding="utf-8"?>
<!-- Generator: Adobe Illustrator 21.0.2, SVG Export Plug-In . SVG Version: 6.00 Build 0)  -->
<svg version="1.1" xmlns="http://www.w3.org/2000/svg" xmlns:xlink="http://www.w3.org/1999/xlink" x="0px" y="0px"
	 viewBox="0 0 43 20" style="enable-background:new 0 0 43 20;" xml:space="preserve">
<style type="text/css">
	.st0{fill:#13347E;}
	.st1{fill:#1A2070;}
</style>
<g id="Layer_1">
	<g>
		<path class="st1" d="M6.4,13.9c-0.3-0.2-0.6-0.3-1-0.4c-0.4-0.1-0.8-0.1-1.2-0.1c-0.5,0-1.1,0.1-1.6,0.3s-0.9,0.5-1.3,0.8
			c-0.4,0.4-0.6,0.8-0.9,1.3c-0.2,0.5-0.3,1.1-0.3,1.7c0,0.8,0.2,1.4,0.7,1.8c0.5,0.4,1.1,0.6,2,0.6c0.3,0,0.6,0,0.7-0.1
			c0.2,0,0.4-0.1,0.6-0.1c0.2,0,0.3-0.1,0.5-0.2c0.2-0.1,0.3-0.1,0.4-0.2l0.4-1.5H5.4c-0.3,0.2-0.6,0.4-1,0.6
			c-0.3,0.2-0.7,0.2-1.1,0.2c-0.4,0-0.8-0.1-1-0.3C2.1,18.2,2,17.8,2,17.3c0-0.8,0.2-1.4,0.6-1.9c0.4-0.5,0.9-0.8,1.6-0.8
			c0.4,0,0.7,0.1,0.9,0.2c0.3,0.1,0.5,0.3,0.8,0.6h0.2L6.4,13.9z"/>
		<path class="st1" d="M11.2,15.3c-0.2-0.2-0.6-0.3-1-0.3c-0.3,0-0.6,0.1-0.9,0.2c-0.3,0.1-0.5,0.3-0.9,0.5l0.5-2.4H7.5L6,19.9h1.5
			l0.8-3.4c0.2-0.1,0.4-0.2,0.5-0.2c0.2-0.1,0.3-0.1,0.4-0.1c0.2,0,0.4,0,0.5,0.1c0.1,0.1,0.1,0.2,0.1,0.4c0,0.1,0,0.2,0,0.3
			c0,0.1-0.1,0.3-0.1,0.5l-0.5,2.4h1.6l0.7-3.1c0-0.1,0-0.2,0.1-0.3c0-0.1,0-0.2,0-0.3C11.6,15.8,11.5,15.5,11.2,15.3z"/>
		<path class="st1" d="M16.9,15.4c-0.4-0.3-0.9-0.4-1.6-0.4c-0.5,0-0.9,0.1-1.3,0.2c-0.4,0.2-0.7,0.4-1,0.6c-0.3,0.3-0.5,0.6-0.6,1
			c-0.2,0.4-0.2,0.8-0.2,1.2c0,0.6,0.2,1.1,0.7,1.5c0.4,0.4,1.1,0.5,1.9,0.5c0.4,0,0.7,0,1.1-0.1c0.3-0.1,0.6-0.2,0.9-0.3l0.3-1.2
			h-0.2c-0.2,0.1-0.5,0.3-0.8,0.4c-0.3,0.1-0.6,0.2-1,0.2c-0.5,0-0.8-0.1-1.1-0.3c-0.2-0.2-0.4-0.5-0.4-0.8c0,0,0,0,0-0.1s0,0,0-0.1
			h3.6c0.1-0.2,0.1-0.4,0.2-0.5c0-0.2,0.1-0.4,0.1-0.6C17.4,16.1,17.2,15.7,16.9,15.4z M15.9,16.7c0,0,0,0.1,0,0.1v0h-2.1
			c0.1-0.3,0.3-0.5,0.5-0.7c0.2-0.2,0.5-0.3,0.8-0.3c0.3,0,0.5,0.1,0.6,0.2c0.1,0.1,0.2,0.3,0.2,0.5C15.9,16.6,15.9,16.7,15.9,16.7z
			"/>
		<path class="st1" d="M20.9,16c0.3,0,0.5,0.1,0.7,0.2s0.4,0.2,0.6,0.5h0.2l0.3-1.3c-0.2-0.1-0.5-0.2-0.8-0.3
			c-0.3-0.1-0.6-0.1-0.9-0.1c-0.5,0-0.9,0.1-1.4,0.2c-0.4,0.2-0.8,0.4-1.1,0.6c-0.3,0.3-0.5,0.6-0.7,1c-0.2,0.4-0.2,0.8-0.2,1.2
			c0,0.3,0.1,0.6,0.2,0.9s0.3,0.5,0.5,0.6c0.2,0.2,0.5,0.3,0.7,0.4c0.3,0.1,0.6,0.1,0.9,0.1c0.4,0,0.7,0,0.9-0.1
			c0.2-0.1,0.5-0.2,0.8-0.3l0.3-1.3h-0.2c-0.2,0.1-0.4,0.3-0.6,0.4c-0.2,0.1-0.5,0.2-0.8,0.2c-0.4,0-0.7-0.1-0.8-0.3
			c-0.2-0.2-0.3-0.4-0.3-0.8c0-0.5,0.2-0.9,0.4-1.3C20,16.2,20.4,16,20.9,16z"/>
		<polygon class="st1" points="28.4,15.1 26.7,15.1 24.5,16.9 25.2,13.2 23.7,13.2 22.4,19.9 23.9,19.9 24.3,18.3 24.4,17.8 
			25.9,19.8 27.5,19.8 25.7,17.3 		"/>
		<path class="st1" d="M30.9,14.9c-0.5,0-0.9,0.1-1.3,0.2c-0.4,0.2-0.7,0.4-1,0.7c-0.3,0.3-0.5,0.6-0.6,1c-0.1,0.4-0.2,0.8-0.2,1.2
			c0,0.6,0.2,1.1,0.6,1.4c0.4,0.3,0.9,0.5,1.6,0.5c0.5,0,0.9-0.1,1.3-0.2c0.4-0.2,0.7-0.4,1-0.7c0.3-0.3,0.5-0.6,0.6-1
			c0.2-0.4,0.2-0.8,0.2-1.3c0-0.6-0.2-1.1-0.6-1.4C32.1,15.1,31.6,14.9,30.9,14.9z M31.4,17.7c-0.1,0.2-0.2,0.5-0.3,0.7
			c-0.1,0.2-0.3,0.3-0.4,0.4c-0.2,0.1-0.3,0.2-0.5,0.2c-0.2,0-0.4-0.1-0.6-0.2c-0.2-0.1-0.2-0.4-0.2-0.7c0-0.3,0-0.5,0.1-0.8
			c0.1-0.3,0.2-0.5,0.3-0.7c0.1-0.2,0.3-0.3,0.4-0.4c0.2-0.1,0.4-0.2,0.6-0.2c0.3,0,0.5,0.1,0.6,0.2c0.1,0.2,0.2,0.4,0.2,0.7
			C31.5,17.2,31.5,17.5,31.4,17.7z"/>
		<polygon class="st1" points="39.1,15.1 39.1,15.1 39.1,15.1 		"/>
		<path class="st1" d="M37.6,15.1l-0.8,3.4c-0.2,0.1-0.4,0.2-0.5,0.2c-0.2,0.1-0.3,0.1-0.4,0.1c-0.2,0-0.4,0-0.5-0.1
			c-0.1-0.1-0.1-0.2-0.1-0.4c0-0.1,0-0.2,0-0.3c0-0.1,0.1-0.3,0.1-0.5l0.5-2.4h-1.6l-0.7,3.1c0,0.1,0,0.2-0.1,0.3c0,0.1,0,0.2,0,0.3
			c0,0.4,0.1,0.7,0.4,0.9c0.2,0.2,0.6,0.3,1,0.3c0.1,0,0.3,0,0.4,0c0.1,0,0.3-0.1,0.5-0.1c0.1,0,0.3-0.1,0.4-0.2
			c0.2-0.1,0.3-0.2,0.5-0.3l-0.1,0.5H38l1.1-4.8H37.6z"/>
		<path class="st1" d="M40.7,17.8l0.4-1.7h1.4l0.2-1h-1.4l0.3-1.4h-1.5l-0.3,1.4l-0.2,1L39,18.3c0,0.1,0,0.2-0.1,0.3
			c0,0.1,0,0.2,0,0.3c0,0.3,0.1,0.6,0.3,0.8c0.2,0.2,0.6,0.3,1.1,0.3c0.3,0,0.5,0,0.7,0c0.2,0,0.4-0.1,0.5-0.1l0.2-1h-0.1
			c-0.1,0-0.2,0.1-0.3,0.1c-0.1,0-0.2,0-0.3,0c-0.2,0-0.3,0-0.4-0.1c-0.1-0.1-0.1-0.2-0.1-0.4c0-0.1,0-0.2,0-0.3
			C40.6,18,40.7,17.9,40.7,17.8z"/>
		<path class="st1" d="M30.3,11.7L31,10h3.8l0.4,1.7h2.7L35.5,0.2h-2.5c-0.6,0-1.1,0.3-1.3,0.8l-4.5,10.6H30.3z M33.4,3.3l0.9,4.3
			h-2.5L33.4,3.3z"/>
		<path class="st1" d="M22.5,9.5c-1.5,0-2.4-0.4-3-0.7l-0.5,2.5c0.7,0.3,2,0.6,3.3,0.6c3.1,0,5.2-1.5,5.2-3.9c0-3-4.2-3.2-4.2-4.5
			c0-0.4,0.4-0.8,1.3-1c0.4-0.1,1.6-0.1,2.9,0.5l0.5-2.4C27.2,0.2,26.3,0,25.2,0c-2.9,0-5,1.6-5,3.8c0,1.7,1.5,2.6,2.6,3.1
			c1.2,0.6,1.5,0.9,1.5,1.4C24.3,9.1,23.4,9.4,22.5,9.5z"/>
		<polygon class="st1" points="16.9,11.7 19.3,0.2 16.4,0.2 13.9,11.7 		"/>
		<path class="st1" d="M4.8,2.5l2.4,9.2h3.1l4.8-11.5H12L8.9,8L7.6,1.4C7.5,0.6,6.9,0.2,6.3,0.2h-5L1.2,0.5c1,0.2,2.2,0.6,2.9,1
			C4.5,1.8,4.6,2,4.8,2.5z"/>
	</g>
</g>
<g id="Layer_2">
</g>
</svg>
